<mxfile host="app.diagrams.net" modified="2024-02-07T03:06:54.052Z" agent="Mozilla/5.0 (Windows NT 10.0; Win64; x64) AppleWebKit/537.36 (KHTML, like Gecko) Chrome/121.0.0.0 Safari/537.36" etag="c8jDd8KUq4BKAm7H57VB" version="23.1.1" type="device">
  <diagram id="R2lEEEUBdFMjLlhIrx00" name="Page-1">
    <mxGraphModel dx="6003" dy="3940" grid="1" gridSize="10" guides="1" tooltips="1" connect="1" arrows="1" fold="1" page="1" pageScale="1" pageWidth="850" pageHeight="1100" math="0" shadow="0" extFonts="Permanent Marker^https://fonts.googleapis.com/css?family=Permanent+Marker">
      <root>
        <mxCell id="0" />
        <mxCell id="1" parent="0" />
        <mxCell id="f5X-awWZE9f3qXDgbwMg-3" value="" style="edgeStyle=orthogonalEdgeStyle;rounded=0;orthogonalLoop=1;jettySize=auto;html=1;" edge="1" parent="1" source="f5X-awWZE9f3qXDgbwMg-1" target="f5X-awWZE9f3qXDgbwMg-2">
          <mxGeometry relative="1" as="geometry" />
        </mxCell>
        <mxCell id="f5X-awWZE9f3qXDgbwMg-7" value="" style="edgeStyle=orthogonalEdgeStyle;rounded=0;orthogonalLoop=1;jettySize=auto;html=1;" edge="1" parent="1" source="f5X-awWZE9f3qXDgbwMg-1" target="f5X-awWZE9f3qXDgbwMg-6">
          <mxGeometry relative="1" as="geometry" />
        </mxCell>
        <mxCell id="f5X-awWZE9f3qXDgbwMg-9" value="" style="edgeStyle=orthogonalEdgeStyle;rounded=0;orthogonalLoop=1;jettySize=auto;html=1;" edge="1" parent="1" source="f5X-awWZE9f3qXDgbwMg-1" target="f5X-awWZE9f3qXDgbwMg-8">
          <mxGeometry relative="1" as="geometry" />
        </mxCell>
        <mxCell id="f5X-awWZE9f3qXDgbwMg-18" value="" style="edgeStyle=orthogonalEdgeStyle;rounded=0;orthogonalLoop=1;jettySize=auto;html=1;" edge="1" parent="1" source="f5X-awWZE9f3qXDgbwMg-1" target="f5X-awWZE9f3qXDgbwMg-17">
          <mxGeometry relative="1" as="geometry" />
        </mxCell>
        <mxCell id="f5X-awWZE9f3qXDgbwMg-114" value="" style="edgeStyle=orthogonalEdgeStyle;rounded=0;orthogonalLoop=1;jettySize=auto;html=1;" edge="1" parent="1" source="f5X-awWZE9f3qXDgbwMg-1" target="f5X-awWZE9f3qXDgbwMg-113">
          <mxGeometry relative="1" as="geometry" />
        </mxCell>
        <mxCell id="f5X-awWZE9f3qXDgbwMg-1" value="Patients" style="rounded=0;whiteSpace=wrap;html=1;" vertex="1" parent="1">
          <mxGeometry x="-640" y="-725" width="200" height="50" as="geometry" />
        </mxCell>
        <mxCell id="f5X-awWZE9f3qXDgbwMg-2" value="&lt;div&gt;&lt;u&gt;Patient_ID&lt;/u&gt;&lt;/div&gt;&lt;div&gt;&lt;br&gt;&lt;/div&gt;" style="ellipse;whiteSpace=wrap;html=1;rounded=0;" vertex="1" parent="1">
          <mxGeometry x="-1020" y="-440" width="150" height="80" as="geometry" />
        </mxCell>
        <mxCell id="f5X-awWZE9f3qXDgbwMg-6" value="Name" style="ellipse;whiteSpace=wrap;html=1;rounded=0;" vertex="1" parent="1">
          <mxGeometry x="-850" y="-450" width="150" height="80" as="geometry" />
        </mxCell>
        <mxCell id="f5X-awWZE9f3qXDgbwMg-8" value="&lt;div&gt;&amp;nbsp;Gender&lt;/div&gt;&lt;div&gt;&lt;br&gt;&lt;/div&gt;" style="ellipse;whiteSpace=wrap;html=1;rounded=0;" vertex="1" parent="1">
          <mxGeometry x="-495" y="-450" width="140" height="80" as="geometry" />
        </mxCell>
        <mxCell id="f5X-awWZE9f3qXDgbwMg-17" value="Age" style="ellipse;whiteSpace=wrap;html=1;rounded=0;" vertex="1" parent="1">
          <mxGeometry x="-680" y="-450" width="160" height="80" as="geometry" />
        </mxCell>
        <mxCell id="f5X-awWZE9f3qXDgbwMg-23" value="" style="edgeStyle=orthogonalEdgeStyle;rounded=0;orthogonalLoop=1;jettySize=auto;html=1;" edge="1" parent="1" source="f5X-awWZE9f3qXDgbwMg-19" target="f5X-awWZE9f3qXDgbwMg-22">
          <mxGeometry relative="1" as="geometry" />
        </mxCell>
        <mxCell id="f5X-awWZE9f3qXDgbwMg-27" value="" style="edgeStyle=orthogonalEdgeStyle;rounded=0;orthogonalLoop=1;jettySize=auto;html=1;" edge="1" parent="1" source="f5X-awWZE9f3qXDgbwMg-19" target="f5X-awWZE9f3qXDgbwMg-26">
          <mxGeometry relative="1" as="geometry" />
        </mxCell>
        <mxCell id="f5X-awWZE9f3qXDgbwMg-142" value="" style="edgeStyle=orthogonalEdgeStyle;rounded=0;orthogonalLoop=1;jettySize=auto;html=1;" edge="1" parent="1" source="f5X-awWZE9f3qXDgbwMg-19" target="f5X-awWZE9f3qXDgbwMg-141">
          <mxGeometry relative="1" as="geometry" />
        </mxCell>
        <mxCell id="f5X-awWZE9f3qXDgbwMg-144" value="" style="edgeStyle=orthogonalEdgeStyle;rounded=0;orthogonalLoop=1;jettySize=auto;html=1;" edge="1" parent="1" source="f5X-awWZE9f3qXDgbwMg-19" target="f5X-awWZE9f3qXDgbwMg-143">
          <mxGeometry relative="1" as="geometry" />
        </mxCell>
        <mxCell id="f5X-awWZE9f3qXDgbwMg-146" value="" style="edgeStyle=orthogonalEdgeStyle;rounded=0;orthogonalLoop=1;jettySize=auto;html=1;" edge="1" parent="1" source="f5X-awWZE9f3qXDgbwMg-19" target="f5X-awWZE9f3qXDgbwMg-145">
          <mxGeometry relative="1" as="geometry" />
        </mxCell>
        <mxCell id="f5X-awWZE9f3qXDgbwMg-19" value="Psychologists/Therapists" style="rounded=0;whiteSpace=wrap;html=1;" vertex="1" parent="1">
          <mxGeometry x="1410" y="-850" width="170" height="60" as="geometry" />
        </mxCell>
        <mxCell id="f5X-awWZE9f3qXDgbwMg-22" value="Name" style="ellipse;whiteSpace=wrap;html=1;rounded=0;" vertex="1" parent="1">
          <mxGeometry x="1810" y="-740" width="130" height="80" as="geometry" />
        </mxCell>
        <mxCell id="f5X-awWZE9f3qXDgbwMg-26" value="&lt;div&gt;Contact Info&lt;/div&gt;&lt;div&gt;&lt;br&gt;&lt;/div&gt;" style="ellipse;whiteSpace=wrap;html=1;rounded=0;" vertex="1" parent="1">
          <mxGeometry x="1550" y="-735" width="120" height="80" as="geometry" />
        </mxCell>
        <mxCell id="f5X-awWZE9f3qXDgbwMg-34" value="" style="edgeStyle=orthogonalEdgeStyle;rounded=0;orthogonalLoop=1;jettySize=auto;html=1;" edge="1" parent="1" source="f5X-awWZE9f3qXDgbwMg-32" target="f5X-awWZE9f3qXDgbwMg-33">
          <mxGeometry relative="1" as="geometry" />
        </mxCell>
        <mxCell id="f5X-awWZE9f3qXDgbwMg-39" value="" style="edgeStyle=orthogonalEdgeStyle;rounded=0;orthogonalLoop=1;jettySize=auto;html=1;" edge="1" parent="1" source="f5X-awWZE9f3qXDgbwMg-32" target="f5X-awWZE9f3qXDgbwMg-38">
          <mxGeometry relative="1" as="geometry" />
        </mxCell>
        <mxCell id="f5X-awWZE9f3qXDgbwMg-42" value="" style="edgeStyle=orthogonalEdgeStyle;rounded=0;orthogonalLoop=1;jettySize=auto;html=1;" edge="1" parent="1" source="f5X-awWZE9f3qXDgbwMg-32" target="f5X-awWZE9f3qXDgbwMg-41">
          <mxGeometry relative="1" as="geometry" />
        </mxCell>
        <mxCell id="f5X-awWZE9f3qXDgbwMg-49" value="" style="edgeStyle=orthogonalEdgeStyle;rounded=0;orthogonalLoop=1;jettySize=auto;html=1;" edge="1" parent="1" source="f5X-awWZE9f3qXDgbwMg-32" target="f5X-awWZE9f3qXDgbwMg-48">
          <mxGeometry relative="1" as="geometry">
            <Array as="points">
              <mxPoint x="1340" y="-680" />
            </Array>
          </mxGeometry>
        </mxCell>
        <mxCell id="f5X-awWZE9f3qXDgbwMg-32" value="Digital Tools/Apps" style="rounded=1;whiteSpace=wrap;html=1;" vertex="1" parent="1">
          <mxGeometry x="860" y="-820" width="120" height="60" as="geometry" />
        </mxCell>
        <mxCell id="f5X-awWZE9f3qXDgbwMg-33" value="&lt;div&gt;Tool/App_ID&lt;/div&gt;&lt;div&gt;&lt;hr&gt;&lt;/div&gt;" style="ellipse;whiteSpace=wrap;html=1;rounded=1;" vertex="1" parent="1">
          <mxGeometry x="930" y="-480" width="120" height="80" as="geometry" />
        </mxCell>
        <mxCell id="f5X-awWZE9f3qXDgbwMg-38" value="Name" style="ellipse;whiteSpace=wrap;html=1;rounded=1;" vertex="1" parent="1">
          <mxGeometry x="780" y="-480" width="130" height="80" as="geometry" />
        </mxCell>
        <mxCell id="f5X-awWZE9f3qXDgbwMg-41" value="&lt;div&gt;&amp;nbsp;Description&lt;/div&gt;&lt;div&gt;&lt;br&gt;&lt;/div&gt;" style="ellipse;whiteSpace=wrap;html=1;rounded=1;" vertex="1" parent="1">
          <mxGeometry x="960" y="-940" width="130" height="80" as="geometry" />
        </mxCell>
        <mxCell id="f5X-awWZE9f3qXDgbwMg-48" value="&lt;div&gt;Platform&lt;/div&gt;&lt;div&gt;&lt;br&gt;&lt;/div&gt;" style="ellipse;whiteSpace=wrap;html=1;rounded=1;" vertex="1" parent="1">
          <mxGeometry x="1080" y="-485" width="130" height="80" as="geometry" />
        </mxCell>
        <mxCell id="f5X-awWZE9f3qXDgbwMg-54" value="" style="edgeStyle=orthogonalEdgeStyle;rounded=0;orthogonalLoop=1;jettySize=auto;html=1;" edge="1" parent="1" source="f5X-awWZE9f3qXDgbwMg-50" target="f5X-awWZE9f3qXDgbwMg-53">
          <mxGeometry relative="1" as="geometry" />
        </mxCell>
        <mxCell id="f5X-awWZE9f3qXDgbwMg-56" value="" style="edgeStyle=orthogonalEdgeStyle;rounded=0;orthogonalLoop=1;jettySize=auto;html=1;" edge="1" parent="1" source="f5X-awWZE9f3qXDgbwMg-50" target="f5X-awWZE9f3qXDgbwMg-55">
          <mxGeometry relative="1" as="geometry" />
        </mxCell>
        <mxCell id="f5X-awWZE9f3qXDgbwMg-59" value="" style="edgeStyle=orthogonalEdgeStyle;rounded=0;orthogonalLoop=1;jettySize=auto;html=1;" edge="1" parent="1" source="f5X-awWZE9f3qXDgbwMg-50" target="f5X-awWZE9f3qXDgbwMg-58">
          <mxGeometry relative="1" as="geometry" />
        </mxCell>
        <mxCell id="f5X-awWZE9f3qXDgbwMg-127" value="" style="edgeStyle=orthogonalEdgeStyle;rounded=0;orthogonalLoop=1;jettySize=auto;html=1;" edge="1" parent="1" source="f5X-awWZE9f3qXDgbwMg-50" target="f5X-awWZE9f3qXDgbwMg-126">
          <mxGeometry relative="1" as="geometry" />
        </mxCell>
        <mxCell id="f5X-awWZE9f3qXDgbwMg-129" value="" style="edgeStyle=orthogonalEdgeStyle;rounded=0;orthogonalLoop=1;jettySize=auto;html=1;" edge="1" parent="1" source="f5X-awWZE9f3qXDgbwMg-50" target="f5X-awWZE9f3qXDgbwMg-128">
          <mxGeometry relative="1" as="geometry" />
        </mxCell>
        <mxCell id="f5X-awWZE9f3qXDgbwMg-50" value="Mental Health Apps" style="rounded=1;whiteSpace=wrap;html=1;" vertex="1" parent="1">
          <mxGeometry x="-1410" y="-900" width="170" height="60" as="geometry" />
        </mxCell>
        <mxCell id="f5X-awWZE9f3qXDgbwMg-53" value="&lt;p style=&quot;line-height: 230%;&quot;&gt;Name&lt;/p&gt;" style="ellipse;whiteSpace=wrap;html=1;rounded=1;" vertex="1" parent="1">
          <mxGeometry x="-1480" y="-645" width="130" height="80" as="geometry" />
        </mxCell>
        <mxCell id="f5X-awWZE9f3qXDgbwMg-55" value="&lt;div&gt;Description&lt;/div&gt;&lt;div&gt;&lt;br&gt;&lt;/div&gt;" style="ellipse;whiteSpace=wrap;html=1;rounded=1;" vertex="1" parent="1">
          <mxGeometry x="-1810" y="-635" width="140" height="70" as="geometry" />
        </mxCell>
        <mxCell id="f5X-awWZE9f3qXDgbwMg-58" value="&lt;div&gt;&amp;nbsp; Rating&lt;/div&gt;&lt;div&gt;&lt;br&gt;&lt;/div&gt;" style="ellipse;whiteSpace=wrap;html=1;rounded=1;" vertex="1" parent="1">
          <mxGeometry x="-1630" y="-640" width="115" height="70" as="geometry" />
        </mxCell>
        <mxCell id="f5X-awWZE9f3qXDgbwMg-66" value="" style="edgeStyle=orthogonalEdgeStyle;rounded=0;orthogonalLoop=1;jettySize=auto;html=1;" edge="1" parent="1" source="f5X-awWZE9f3qXDgbwMg-64" target="f5X-awWZE9f3qXDgbwMg-65">
          <mxGeometry relative="1" as="geometry" />
        </mxCell>
        <mxCell id="f5X-awWZE9f3qXDgbwMg-67" value="" style="edgeStyle=orthogonalEdgeStyle;rounded=0;orthogonalLoop=1;jettySize=auto;html=1;" edge="1" parent="1" source="f5X-awWZE9f3qXDgbwMg-64" target="f5X-awWZE9f3qXDgbwMg-65">
          <mxGeometry relative="1" as="geometry" />
        </mxCell>
        <mxCell id="f5X-awWZE9f3qXDgbwMg-69" value="" style="edgeStyle=orthogonalEdgeStyle;rounded=0;orthogonalLoop=1;jettySize=auto;html=1;" edge="1" parent="1" source="f5X-awWZE9f3qXDgbwMg-64" target="f5X-awWZE9f3qXDgbwMg-68">
          <mxGeometry relative="1" as="geometry" />
        </mxCell>
        <mxCell id="f5X-awWZE9f3qXDgbwMg-72" value="" style="edgeStyle=orthogonalEdgeStyle;rounded=0;orthogonalLoop=1;jettySize=auto;html=1;" edge="1" parent="1" source="f5X-awWZE9f3qXDgbwMg-64" target="f5X-awWZE9f3qXDgbwMg-71">
          <mxGeometry relative="1" as="geometry" />
        </mxCell>
        <mxCell id="f5X-awWZE9f3qXDgbwMg-74" value="" style="edgeStyle=orthogonalEdgeStyle;rounded=0;orthogonalLoop=1;jettySize=auto;html=1;" edge="1" parent="1" source="f5X-awWZE9f3qXDgbwMg-64" target="f5X-awWZE9f3qXDgbwMg-73">
          <mxGeometry relative="1" as="geometry" />
        </mxCell>
        <mxCell id="f5X-awWZE9f3qXDgbwMg-77" value="" style="edgeStyle=orthogonalEdgeStyle;rounded=0;orthogonalLoop=1;jettySize=auto;html=1;" edge="1" parent="1" source="f5X-awWZE9f3qXDgbwMg-64" target="f5X-awWZE9f3qXDgbwMg-76">
          <mxGeometry relative="1" as="geometry" />
        </mxCell>
        <mxCell id="f5X-awWZE9f3qXDgbwMg-79" value="" style="edgeStyle=orthogonalEdgeStyle;rounded=0;orthogonalLoop=1;jettySize=auto;html=1;" edge="1" parent="1" source="f5X-awWZE9f3qXDgbwMg-64" target="f5X-awWZE9f3qXDgbwMg-78">
          <mxGeometry relative="1" as="geometry" />
        </mxCell>
        <mxCell id="f5X-awWZE9f3qXDgbwMg-64" value="Books" style="rounded=1;whiteSpace=wrap;html=1;" vertex="1" parent="1">
          <mxGeometry x="710" y="-1040" width="120" height="60" as="geometry" />
        </mxCell>
        <mxCell id="f5X-awWZE9f3qXDgbwMg-65" value="" style="ellipse;whiteSpace=wrap;html=1;rounded=1;" vertex="1" parent="1">
          <mxGeometry x="530" y="-1180" width="140" height="80" as="geometry" />
        </mxCell>
        <mxCell id="f5X-awWZE9f3qXDgbwMg-68" value="Book_ID&lt;hr&gt;" style="ellipse;whiteSpace=wrap;html=1;rounded=1;" vertex="1" parent="1">
          <mxGeometry x="530" y="-1180" width="140" height="80" as="geometry" />
        </mxCell>
        <mxCell id="f5X-awWZE9f3qXDgbwMg-71" value="&lt;div&gt;Title&lt;/div&gt;&lt;div&gt;&lt;br&gt;&lt;/div&gt;" style="ellipse;whiteSpace=wrap;html=1;rounded=1;" vertex="1" parent="1">
          <mxGeometry x="355" y="-1180" width="140" height="80" as="geometry" />
        </mxCell>
        <mxCell id="f5X-awWZE9f3qXDgbwMg-73" value="&lt;div&gt;Author&lt;/div&gt;&lt;div&gt;&lt;br&gt;&lt;/div&gt;" style="ellipse;whiteSpace=wrap;html=1;rounded=1;" vertex="1" parent="1">
          <mxGeometry x="715" y="-1180" width="140" height="80" as="geometry" />
        </mxCell>
        <mxCell id="f5X-awWZE9f3qXDgbwMg-76" value="&lt;div&gt;Genre&lt;/div&gt;&lt;div&gt;&lt;br&gt;&lt;/div&gt;" style="ellipse;whiteSpace=wrap;html=1;rounded=1;" vertex="1" parent="1">
          <mxGeometry x="900" y="-1170" width="140" height="80" as="geometry" />
        </mxCell>
        <mxCell id="f5X-awWZE9f3qXDgbwMg-78" value="&lt;div&gt;&amp;nbsp;Description&lt;/div&gt;&lt;div&gt;&lt;br&gt;&lt;/div&gt;" style="ellipse;whiteSpace=wrap;html=1;rounded=1;" vertex="1" parent="1">
          <mxGeometry x="1100" y="-1170" width="120" height="80" as="geometry" />
        </mxCell>
        <mxCell id="f5X-awWZE9f3qXDgbwMg-84" value="" style="edgeStyle=orthogonalEdgeStyle;rounded=0;orthogonalLoop=1;jettySize=auto;html=1;" edge="1" parent="1" source="f5X-awWZE9f3qXDgbwMg-82" target="f5X-awWZE9f3qXDgbwMg-83">
          <mxGeometry relative="1" as="geometry" />
        </mxCell>
        <mxCell id="f5X-awWZE9f3qXDgbwMg-86" value="" style="edgeStyle=orthogonalEdgeStyle;rounded=0;orthogonalLoop=1;jettySize=auto;html=1;" edge="1" parent="1" source="f5X-awWZE9f3qXDgbwMg-82" target="f5X-awWZE9f3qXDgbwMg-85">
          <mxGeometry relative="1" as="geometry" />
        </mxCell>
        <mxCell id="f5X-awWZE9f3qXDgbwMg-87" value="" style="edgeStyle=orthogonalEdgeStyle;rounded=0;orthogonalLoop=1;jettySize=auto;html=1;" edge="1" parent="1" source="f5X-awWZE9f3qXDgbwMg-82" target="f5X-awWZE9f3qXDgbwMg-83">
          <mxGeometry relative="1" as="geometry" />
        </mxCell>
        <mxCell id="f5X-awWZE9f3qXDgbwMg-89" value="" style="edgeStyle=orthogonalEdgeStyle;rounded=0;orthogonalLoop=1;jettySize=auto;html=1;" edge="1" parent="1" source="f5X-awWZE9f3qXDgbwMg-82" target="f5X-awWZE9f3qXDgbwMg-88">
          <mxGeometry relative="1" as="geometry" />
        </mxCell>
        <mxCell id="f5X-awWZE9f3qXDgbwMg-92" value="" style="edgeStyle=orthogonalEdgeStyle;rounded=0;orthogonalLoop=1;jettySize=auto;html=1;" edge="1" parent="1" source="f5X-awWZE9f3qXDgbwMg-82" target="f5X-awWZE9f3qXDgbwMg-91">
          <mxGeometry relative="1" as="geometry" />
        </mxCell>
        <mxCell id="f5X-awWZE9f3qXDgbwMg-82" value="chatbot" style="whiteSpace=wrap;html=1;strokeWidth=3;" vertex="1" parent="1">
          <mxGeometry x="340" y="-735" width="120" height="60" as="geometry" />
        </mxCell>
        <mxCell id="f5X-awWZE9f3qXDgbwMg-83" value="&lt;div&gt;Chatbot_ID&lt;/div&gt;&lt;div&gt;&lt;hr&gt;&lt;/div&gt;" style="ellipse;whiteSpace=wrap;html=1;strokeWidth=3;" vertex="1" parent="1">
          <mxGeometry x="150" y="-480" width="110" height="60" as="geometry" />
        </mxCell>
        <mxCell id="f5X-awWZE9f3qXDgbwMg-85" value="&lt;div&gt;Features&lt;/div&gt;&lt;div&gt;&lt;br&gt;&lt;/div&gt;" style="ellipse;whiteSpace=wrap;html=1;strokeWidth=3;" vertex="1" parent="1">
          <mxGeometry x="450" y="-480" width="110" height="50" as="geometry" />
        </mxCell>
        <mxCell id="f5X-awWZE9f3qXDgbwMg-88" value="Name" style="ellipse;whiteSpace=wrap;html=1;strokeWidth=3;" vertex="1" parent="1">
          <mxGeometry x="300" y="-485" width="120" height="60" as="geometry" />
        </mxCell>
        <mxCell id="f5X-awWZE9f3qXDgbwMg-91" value="&lt;div&gt;Response Pats.&lt;/div&gt;&lt;div&gt;&lt;br&gt;&lt;/div&gt;" style="ellipse;whiteSpace=wrap;html=1;strokeWidth=3;" vertex="1" parent="1">
          <mxGeometry x="600" y="-480" width="110" height="50" as="geometry" />
        </mxCell>
        <mxCell id="f5X-awWZE9f3qXDgbwMg-113" value="&lt;div style=&quot;border-color: var(--border-color);&quot;&gt;Medical Hist.&lt;/div&gt;&lt;div style=&quot;border-color: var(--border-color);&quot;&gt;&lt;br style=&quot;border-color: var(--border-color);&quot;&gt;&lt;/div&gt;" style="ellipse;whiteSpace=wrap;html=1;rounded=0;" vertex="1" parent="1">
          <mxGeometry x="-310" y="-440" width="120" height="80" as="geometry" />
        </mxCell>
        <mxCell id="f5X-awWZE9f3qXDgbwMg-118" value="" style="endArrow=circle;html=1;rounded=0;startArrow=ERmandOne;startFill=0;endFill=0;" edge="1" parent="1">
          <mxGeometry width="50" height="50" relative="1" as="geometry">
            <mxPoint x="-440" y="-725" as="sourcePoint" />
            <mxPoint x="340" y="-725" as="targetPoint" />
          </mxGeometry>
        </mxCell>
        <mxCell id="f5X-awWZE9f3qXDgbwMg-119" value="" style="edgeStyle=orthogonalEdgeStyle;rounded=0;orthogonalLoop=1;jettySize=auto;html=1;entryX=0.5;entryY=0;entryDx=0;entryDy=0;" edge="1" parent="1" target="f5X-awWZE9f3qXDgbwMg-10">
          <mxGeometry relative="1" as="geometry">
            <mxPoint x="-425" y="-515" as="sourcePoint" />
            <mxPoint x="-45" y="-370" as="targetPoint" />
            <Array as="points">
              <mxPoint x="-45" y="-515" />
            </Array>
          </mxGeometry>
        </mxCell>
        <mxCell id="f5X-awWZE9f3qXDgbwMg-10" value="&lt;div&gt;&amp;nbsp;Contact Info&lt;/div&gt;&lt;div&gt;&lt;br&gt;&lt;/div&gt;" style="ellipse;whiteSpace=wrap;html=1;rounded=0;" vertex="1" parent="1">
          <mxGeometry x="-110" y="-440" width="120" height="80" as="geometry" />
        </mxCell>
        <mxCell id="f5X-awWZE9f3qXDgbwMg-120" value="" style="endArrow=circle;html=1;rounded=0;edgeStyle=orthogonalEdgeStyle;entryX=0.5;entryY=1;entryDx=0;entryDy=0;startArrow=ERmandOne;startFill=0;endFill=0;" edge="1" parent="1" target="f5X-awWZE9f3qXDgbwMg-64">
          <mxGeometry width="50" height="50" relative="1" as="geometry">
            <mxPoint x="-520" y="-730" as="sourcePoint" />
            <mxPoint x="-230" y="-860" as="targetPoint" />
            <Array as="points">
              <mxPoint x="-520" y="-809" />
              <mxPoint x="770" y="-809" />
            </Array>
          </mxGeometry>
        </mxCell>
        <mxCell id="f5X-awWZE9f3qXDgbwMg-126" value="&lt;div style=&quot;border-color: var(--border-color);&quot;&gt;App_ID&lt;/div&gt;&lt;div style=&quot;border-color: var(--border-color);&quot;&gt;&lt;hr style=&quot;border-color: var(--border-color);&quot;&gt;&lt;/div&gt;" style="ellipse;whiteSpace=wrap;html=1;rounded=1;" vertex="1" parent="1">
          <mxGeometry x="-1320" y="-640" width="155" height="80" as="geometry" />
        </mxCell>
        <mxCell id="f5X-awWZE9f3qXDgbwMg-128" value="&lt;div style=&quot;border-color: var(--border-color);&quot;&gt;&amp;nbsp; Features&lt;/div&gt;&lt;div style=&quot;border-color: var(--border-color);&quot;&gt;&lt;br style=&quot;border-color: var(--border-color);&quot;&gt;&lt;/div&gt;" style="ellipse;whiteSpace=wrap;html=1;rounded=1;" vertex="1" parent="1">
          <mxGeometry x="-2010" y="-640" width="145" height="80" as="geometry" />
        </mxCell>
        <mxCell id="f5X-awWZE9f3qXDgbwMg-130" value="" style="endArrow=circle;html=1;rounded=0;edgeStyle=elbowEdgeStyle;elbow=vertical;exitX=0.891;exitY=1.017;exitDx=0;exitDy=0;exitPerimeter=0;startArrow=ERmandOne;startFill=0;endFill=0;entryX=0.357;entryY=0.04;entryDx=0;entryDy=0;entryPerimeter=0;" edge="1" parent="1">
          <mxGeometry width="50" height="50" relative="1" as="geometry">
            <mxPoint x="-1258.5300000000002" y="-840.98" as="sourcePoint" />
            <mxPoint x="-568.5999999999999" y="-725" as="targetPoint" />
            <Array as="points">
              <mxPoint x="-570" y="-762" />
            </Array>
          </mxGeometry>
        </mxCell>
        <mxCell id="f5X-awWZE9f3qXDgbwMg-141" value="&lt;div style=&quot;border-color: var(--border-color);&quot;&gt;Specialization&lt;/div&gt;&lt;div style=&quot;border-color: var(--border-color);&quot;&gt;&lt;br style=&quot;border-color: var(--border-color);&quot;&gt;&lt;/div&gt;" style="ellipse;whiteSpace=wrap;html=1;rounded=0;" vertex="1" parent="1">
          <mxGeometry x="1960" y="-755" width="130" height="80" as="geometry" />
        </mxCell>
        <mxCell id="f5X-awWZE9f3qXDgbwMg-143" value="&lt;div style=&quot;border-color: var(--border-color);&quot;&gt;&amp;nbsp;License Info&lt;/div&gt;&lt;div style=&quot;border-color: var(--border-color);&quot;&gt;&lt;br style=&quot;border-color: var(--border-color);&quot;&gt;&lt;/div&gt;" style="ellipse;whiteSpace=wrap;html=1;rounded=0;" vertex="1" parent="1">
          <mxGeometry x="1680" y="-740" width="115" height="80" as="geometry" />
        </mxCell>
        <mxCell id="f5X-awWZE9f3qXDgbwMg-145" value="&lt;div style=&quot;border-color: var(--border-color);&quot;&gt;&lt;div style=&quot;border-color: var(--border-color);&quot;&gt;Therapist_ID&lt;/div&gt;&lt;/div&gt;&lt;div style=&quot;border-color: var(--border-color);&quot;&gt;&lt;hr style=&quot;border-color: var(--border-color);&quot;&gt;&lt;/div&gt;" style="ellipse;whiteSpace=wrap;html=1;rounded=0;" vertex="1" parent="1">
          <mxGeometry x="1630" y="-920" width="145" height="80" as="geometry" />
        </mxCell>
        <mxCell id="f5X-awWZE9f3qXDgbwMg-149" value="" style="endArrow=ERmandOne;html=1;rounded=0;edgeStyle=orthogonalEdgeStyle;exitX=1;exitY=0.25;exitDx=0;exitDy=0;startArrow=circle;startFill=1;endFill=0;" edge="1" parent="1">
          <mxGeometry width="50" height="50" relative="1" as="geometry">
            <mxPoint x="980" y="-800" as="sourcePoint" />
            <mxPoint x="1440" y="-785" as="targetPoint" />
            <Array as="points">
              <mxPoint x="1010" y="-800" />
              <mxPoint x="1010" y="-755" />
              <mxPoint x="1440" y="-755" />
            </Array>
          </mxGeometry>
        </mxCell>
        <mxCell id="f5X-awWZE9f3qXDgbwMg-150" value="" style="endArrow=ERone;html=1;rounded=0;edgeStyle=orthogonalEdgeStyle;exitX=1;exitY=0.25;exitDx=0;exitDy=0;startArrow=ERmandOne;startFill=0;endFill=0;" edge="1" parent="1" source="f5X-awWZE9f3qXDgbwMg-82">
          <mxGeometry width="50" height="50" relative="1" as="geometry">
            <mxPoint x="499.43" y="-715" as="sourcePoint" />
            <mxPoint x="909.43" y="-755" as="targetPoint" />
          </mxGeometry>
        </mxCell>
        <mxCell id="f5X-awWZE9f3qXDgbwMg-152" value="" style="endArrow=ERmandOne;html=1;rounded=0;edgeStyle=orthogonalEdgeStyle;exitX=0.898;exitY=1.071;exitDx=0;exitDy=0;exitPerimeter=0;entryX=0.25;entryY=0;entryDx=0;entryDy=0;startArrow=ERone;startFill=0;endFill=0;" edge="1" parent="1" source="f5X-awWZE9f3qXDgbwMg-64" target="f5X-awWZE9f3qXDgbwMg-32">
          <mxGeometry width="50" height="50" relative="1" as="geometry">
            <mxPoint x="840" y="-890" as="sourcePoint" />
            <mxPoint x="890" y="-940" as="targetPoint" />
            <Array as="points">
              <mxPoint x="818" y="-889" />
              <mxPoint x="891" y="-889" />
              <mxPoint x="891" y="-940" />
              <mxPoint x="900" y="-940" />
              <mxPoint x="900" y="-830" />
              <mxPoint x="890" y="-830" />
            </Array>
          </mxGeometry>
        </mxCell>
        <mxCell id="f5X-awWZE9f3qXDgbwMg-154" value="" style="endArrow=ERone;html=1;rounded=0;edgeStyle=elbowEdgeStyle;exitX=1;exitY=0.25;exitDx=0;exitDy=0;entryX=0;entryY=0.5;entryDx=0;entryDy=0;startArrow=ERmandOne;startFill=0;endFill=0;" edge="1" parent="1" target="f5X-awWZE9f3qXDgbwMg-32">
          <mxGeometry width="50" height="50" relative="1" as="geometry">
            <mxPoint x="-1410" y="-855" as="sourcePoint" />
            <mxPoint x="690" y="-790" as="targetPoint" />
            <Array as="points">
              <mxPoint x="-1430" y="-900" />
              <mxPoint x="-1220" y="-1320" />
            </Array>
          </mxGeometry>
        </mxCell>
      </root>
    </mxGraphModel>
  </diagram>
</mxfile>
